<?xml version="1.0" standalone="no"?>
<!DOCTYPE svg PUBLIC "-//W3C//DTD SVG 20010904//EN"
 "http://www.w3.org/TR/2001/REC-SVG-20010904/DTD/svg10.dtd">
<svg version="1.0" xmlns="http://www.w3.org/2000/svg"
 width="512.000000pt" height="512.000000pt" viewBox="0 0 512.000000 512.000000"
 preserveAspectRatio="xMidYMid meet">
<metadata>
Created by potrace 1.11, written by Peter Selinger 2001-2013
</metadata>
<g transform="translate(0.000000,512.000000) scale(0.100000,-0.100000)"
fill="#000000" stroke="none">
<path d="M2430 5114 c-14 -2 -65 -9 -115 -15 -214 -27 -485 -130 -672 -256
-547 -368 -821 -1022 -702 -1673 44 -240 139 -453 305 -687 140 -195 200 -317
245 -493 6 -26 14 -195 19 -405 7 -329 9 -366 29 -435 39 -132 95 -225 196
-325 102 -103 194 -158 331 -197 77 -22 91 -23 494 -23 403 0 417 1 494 23
136 39 229 94 332 197 77 76 98 105 137 185 78 157 79 168 87 575 7 349 8 363
34 459 37 136 100 263 192 387 110 147 159 226 214 342 297 624 166 1372 -326
1862 -242 241 -552 401 -889 460 -87 16 -354 28 -405 19z m281 -304 c453 -52
847 -327 1053 -734 91 -178 132 -338 142 -551 16 -319 -77 -601 -292 -893
-147 -198 -230 -374 -276 -587 -15 -68 -21 -144 -25 -318 l-6 -227 -298 0
-299 0 0 774 0 775 21 6 c18 6 51 -22 198 -168 97 -96 187 -180 199 -187 35
-18 108 -14 144 7 18 10 41 33 51 51 21 36 25 109 7 144 -7 12 -91 102 -187
199 -146 147 -174 180 -168 198 6 21 11 21 258 21 233 0 254 1 293 21 45 21
84 81 84 129 0 48 -39 108 -84 129 -39 20 -60 21 -293 21 -247 0 -252 0 -258
21 -6 18 22 51 168 198 96 97 180 187 187 199 18 35 14 108 -7 144 -10 18 -33
41 -51 51 -36 21 -109 25 -144 7 -12 -7 -102 -91 -199 -187 -147 -146 -180
-174 -198 -168 -21 6 -21 11 -21 258 0 233 -1 254 -21 293 -21 45 -81 84 -129
84 -48 0 -108 -39 -129 -84 -20 -39 -21 -60 -21 -293 0 -247 0 -252 -21 -258
-18 -6 -51 22 -198 168 -97 96 -187 180 -199 187 -35 18 -108 14 -144 -7 -18
-10 -41 -33 -51 -51 -21 -36 -25 -109 -7 -144 7 -12 91 -102 187 -199 146
-147 174 -180 168 -198 -6 -21 -11 -21 -258 -21 -233 0 -254 -1 -293 -21 -45
-21 -84 -81 -84 -129 0 -48 39 -108 84 -129 39 -20 60 -21 293 -21 247 0 252
0 258 -21 6 -18 -22 -51 -168 -198 -96 -97 -180 -187 -187 -199 -18 -35 -14
-108 7 -144 10 -18 33 -41 51 -51 36 -21 109 -25 144 -7 12 7 102 91 199 187
147 146 180 174 198 168 l21 -6 0 -775 0 -774 -300 0 -300 0 0 168 c0 248 -20
384 -81 558 -44 127 -111 251 -203 378 -116 162 -130 183 -175 272 -149 297
-180 651 -85 982 13 48 51 141 83 207 252 516 790 811 1362 745z m-64 -1218
c43 -30 66 -85 60 -138 -9 -84 -80 -141 -163 -131 -192 21 -166 310 27 294 26
-2 60 -13 76 -25z m628 -2414 c-23 -75 -123 -184 -209 -227 -97 -48 -128 -51
-506 -51 -378 0 -408 3 -507 51 -63 31 -163 131 -191 191 -12 26 -22 50 -22
53 0 3 324 5 721 5 l720 0 -6 -22z"/>
<path d="M2193 279 c-44 -22 -83 -82 -83 -129 0 -48 39 -108 84 -129 40 -20
60 -21 366 -21 306 0 326 1 366 21 45 21 84 81 84 129 0 48 -39 108 -84 129
-40 20 -60 21 -367 21 -308 0 -326 -1 -366 -21z"/>
</g>
</svg>
