<?xml version="1.0" standalone="no"?>
<!DOCTYPE svg PUBLIC "-//W3C//DTD SVG 20010904//EN"
 "http://www.w3.org/TR/2001/REC-SVG-20010904/DTD/svg10.dtd">
<svg version="1.0" xmlns="http://www.w3.org/2000/svg"
 width="480.000000pt" height="480.000000pt" viewBox="0 0 480.000000 480.000000"
 preserveAspectRatio="xMidYMid meet">
<metadata>
Created by potrace 1.11, written by Peter Selinger 2001-2013
</metadata>
<g transform="translate(0.000000,480.000000) scale(0.100000,-0.100000)"
fill="#000000" stroke="none">
<path d="M981 4370 c-76 -18 -228 -79 -258 -105 -7 -5 -36 -30 -66 -55 -87
-73 -143 -152 -192 -275 -69 -173 -73 -433 -10 -692 57 -234 188 -534 342
-785 l35 -57 -52 -87 c-72 -119 -168 -314 -229 -462 -27 -67 -50 -125 -50
-127 -1 -8 -32 -118 -41 -145 -5 -14 -12 -41 -15 -60 -3 -19 -12 -66 -19 -105
-23 -111 -12 -425 15 -477 5 -9 9 -24 9 -33 0 -28 80 -178 123 -230 42 -52
126 -126 168 -150 162 -91 299 -121 511 -112 73 3 144 8 158 11 14 3 36 7 50
10 85 16 273 68 325 91 37 16 67 27 80 30 15 4 160 72 246 115 83 42 120 62
222 122 l68 40 122 -70 c120 -69 215 -119 309 -161 69 -31 221 -92 238 -96 8
-2 35 -10 60 -18 38 -13 113 -33 205 -53 89 -20 355 -26 446 -11 313 51 538
273 594 586 21 115 14 350 -14 481 -46 212 -134 445 -250 658 -82 152 -91 168
-119 215 l-22 39 60 101 c170 286 285 577 339 852 27 137 24 396 -6 500 -38
134 -88 221 -179 317 -148 156 -354 226 -632 215 -75 -3 -150 -8 -167 -12 -16
-3 -39 -8 -50 -9 -43 -8 -193 -49 -260 -70 -170 -56 -364 -148 -593 -280 l-82
-48 -68 40 c-37 22 -85 50 -107 62 -50 28 -273 140 -280 140 -2 0 -30 12 -60
26 -61 27 -280 100 -324 107 -14 3 -44 9 -66 15 -72 19 -118 23 -275 27 -128
4 -169 1 -239 -15z m390 -395 c164 -28 353 -96 548 -195 l120 -61 -32 -27
c-18 -15 -48 -39 -67 -54 -19 -14 -47 -36 -61 -49 -14 -13 -52 -46 -84 -74
-197 -167 -475 -456 -625 -648 -41 -52 -79 -96 -85 -96 -19 -1 -158 299 -205
440 -51 154 -65 241 -65 389 1 113 4 143 21 186 41 101 108 161 212 189 64 18
222 18 323 0z m2377 1 c119 -32 199 -111 229 -226 10 -41 13 -252 3 -295 -4
-22 -11 -56 -14 -75 -16 -106 -102 -332 -200 -529 l-47 -92 -32 40 c-18 22
-39 48 -47 59 -108 141 -337 384 -521 553 -154 142 -146 136 -277 241 l-82 66
119 61 c156 79 342 152 456 178 117 26 157 31 260 32 58 0 122 -5 153 -13z
m-1247 -569 c84 -63 153 -117 193 -152 6 -5 47 -41 91 -80 81 -70 287 -274
383 -378 112 -122 312 -378 312 -399 0 -7 -11 -26 -24 -43 -149 -188 -247
-306 -294 -358 -138 -149 -316 -321 -468 -452 -59 -50 -203 -163 -250 -195
l-45 -31 -72 52 c-316 232 -658 567 -908 889 -45 58 -86 114 -91 126 -8 18 0
34 50 100 213 283 520 603 782 814 70 57 235 180 240 180 3 0 48 -33 101 -73z
m-1113 -1726 c156 -167 246 -255 397 -386 44 -39 82 -72 85 -76 3 -3 42 -35
88 -72 l83 -66 -153 -75 c-131 -64 -340 -145 -412 -161 -11 -2 -32 -6 -46 -10
-130 -29 -308 -33 -388 -9 -113 34 -190 113 -219 224 -10 41 -13 252 -3 295 4
22 11 56 14 75 16 108 105 340 198 522 l50 97 100 -122 c55 -67 148 -173 206
-236z m2396 227 c146 -303 191 -451 203 -658 13 -256 -64 -384 -260 -431 -132
-32 -456 22 -642 106 -156 70 -315 151 -314 159 0 6 41 42 90 81 49 38 99 79
111 90 13 12 50 45 83 74 112 100 260 246 361 356 140 154 283 323 292 346 2
5 6 9 8 9 2 0 33 -60 68 -132z"/>
<path d="M2300 2903 c-68 -13 -210 -77 -210 -94 0 -5 -6 -9 -12 -10 -16 0
-105 -105 -130 -151 -63 -117 -78 -279 -37 -407 23 -72 79 -159 141 -216 58
-54 155 -110 207 -120 13 -2 32 -7 43 -11 39 -12 177 -6 234 11 69 20 139 54
174 85 14 12 35 30 48 40 12 10 43 48 67 85 141 210 109 488 -76 659 -124 115
-287 162 -449 129z"/>
</g>
</svg>
